<?xml version="1.0" encoding="iso-8859-1"?>
<!-- Generator: Adobe Illustrator 19.1.0, SVG Export Plug-In . SVG Version: 6.00 Build 0)  -->
<svg version="1.1" id="Capa_1" xmlns="http://www.w3.org/2000/svg" xmlns:xlink="http://www.w3.org/1999/xlink" x="0px" y="0px"
	 viewBox="0 0 475 475" style="enable-background:new 0 0 475 475;" xml:space="preserve">
<g>
	<path d="M379.5,0h-284C42.8,0,0,42.8,0,95.5v284C0,432.2,42.8,475,95.5,475h284c52.7,0,95.5-42.8,95.5-95.5v-284
		C475,42.8,432.2,0,379.5,0z M388.7,400.8H237.5H86.3v-42.6c0-9,4-17.6,11-23.3c38.5-31.6,80-52.6,88.5-56.8c1-0.5,1.6-1.4,1.6-2.5
		v-59.9c-7.5-5-12.5-13.6-12.5-23.3v-62.2c0-30.9,25.1-56,56-56h6.7h6.7c30.9,0,56,25.1,56,56v62.2c0,9.7-5,18.3-12.5,23.3v59.9
		c0,1.1,0.6,2,1.6,2.5c8.5,4.1,50,25.1,88.5,56.8c7,5.7,11,14.3,11,23.3v42.6H388.7z"/>
</g>
<g>
</g>
<g>
</g>
<g>
</g>
<g>
</g>
<g>
</g>
<g>
</g>
<g>
</g>
<g>
</g>
<g>
</g>
<g>
</g>
<g>
</g>
<g>
</g>
<g>
</g>
<g>
</g>
<g>
</g>
</svg>
